700 0 1 0           
11 SatConsumer 23 ASM 218.0.1.400 Unknown 24 Wed Sep  5 22:10:34 2018 
10 9.999999999999999547e-07 1.000000000000000036e-10 
body $-1 -1 $-1 $1 $-1 $2 #
lump $-1 -1 $-1 $-1 $3 $0 #
transform $-1 -1 1 0 0 0 1 0 0 0 1 0 0 0 1 no_rotate no_reflect no_shear #
shell $-1 -1 $-1 $-1 $-1 $4 $-1 $1 #
face $-1 -1 $-1 $5 $6 $3 $-1 $7 forward single #
face $-1 -1 $-1 $8 $9 $3 $-1 $10 forward single #
loop $-1 -1 $-1 $-1 $11 $4 #
cone-surface $-1 -1 $-1 0.2000000000000001776 0 0.2000000000000000111 0 1 0 -0.1414213562373095867 0 -0.1414213562373094479 1 I I 0 1 0.2000000000000000111 forward I I I I #
face $-1 -1 $-1 $12 $13 $3 $-1 $14 reversed single #
loop $-1 -1 $-1 $-1 $15 $5 #
plane-surface $-1 -1 $-1 0 0 0 -1 0 0 -0 -0 1 forward_v I I I I #
coedge $-1 -1 $-1 $16 $17 $18 $19 forward $6 $-1 #
face $-1 -1 $-1 $20 $21 $3 $-1 $22 forward single #
loop $-1 -1 $-1 $-1 $23 $8 #
plane-surface $-1 -1 $-1 3.400000000000000355 0 1.899999999999999911 -0 1 0 0 -0 1 forward_v I I I I #
coedge $-1 -1 $-1 $24 $25 $17 $26 reversed $9 $-1 #
coedge $-1 -1 $-1 $27 $11 $28 $29 forward $6 $-1 #
coedge $-1 -1 $-1 $11 $27 $15 $26 forward $6 $-1 #
coedge $-1 -1 $-1 $30 $31 $11 $19 reversed $32 $-1 #
edge $-1 -1 $-1 $33 -0.7853981633974486121 $34 0.7853981633974488341 $18 $35 forward @7 unknown #
face $-1 -1 $-1 $36 $37 $3 $-1 $38 forward single #
loop $-1 -1 $-1 $-1 $39 $12 #
cone-surface $-1 -1 $-1 0.2000000000000000111 0 3.600000000000000089 0 1 0 -0.1414213562373094479 0 0.1414213562373095867 1 I I 0 1 0.2000000000000000111 forward I I I I #
coedge $-1 -1 $-1 $40 $41 $27 $42 reversed $13 $-1 #
coedge $-1 -1 $-1 $43 $15 $41 $44 reversed $9 $-1 #
coedge $-1 -1 $-1 $15 $43 $30 $45 reversed $9 $-1 #
edge $-1 -1 $-1 $46 0 $33 4.600000000000000533 $15 $47 forward @7 tangent #
coedge $-1 -1 $-1 $17 $16 $23 $42 forward $6 $-1 #
coedge $-1 -1 $-1 $48 $49 $16 $29 reversed $50 $-1 #
edge $-1 -1 $-1 $34 -4.600000000000000533 $51 -0 $28 $52 forward @7 tangent #
coedge $-1 -1 $-1 $53 $18 $25 $45 forward $32 $-1 #
coedge $-1 -1 $-1 $18 $54 $48 $55 forward $32 $-1 #
loop $-1 -1 $-1 $-1 $18 $56 #
vertex $-1 -1 $-1 $45 $57 #
vertex $-1 -1 $-1 $29 $58 #
ellipse-curve $-1 -1 $-1 0.2000000000000001776 4.600000000000000533 0.2000000000000000111 -0 -1 -0 -0.1414213562373095867 0 -0.1414213562373094479 1 I I #
face $-1 -1 $-1 $59 $60 $3 $-1 $61 forward single #
loop $-1 -1 $-1 $-1 $62 $20 #
plane-surface $-1 -1 $-1 0 0 3.800000000000000266 0 -0 1 1 -0 -0 forward_v I I I I #
coedge $-1 -1 $-1 $63 $64 $53 $65 forward $21 $-1 #
coedge $-1 -1 $-1 $66 $23 $49 $67 forward $13 $-1 #
coedge $-1 -1 $-1 $23 $68 $24 $44 forward $13 $-1 #
edge $-1 -1 $-1 $51 -0.7853981633974488341 $46 0.7853981633974486121 $23 $69 forward @7 unknown #
coedge $-1 -1 $-1 $25 $24 $63 $70 reversed $9 $-1 #
edge $-1 -1 $-1 $71 0.2000000000000001776 $46 3.600000000000000089 $24 $72 forward @7 unknown #
edge $-1 -1 $-1 $33 -3.600000000000000089 $73 -0.2000000000000001776 $25 $74 forward @7 unknown #
vertex $-1 -1 $-1 $42 $75 #
straight-curve $-1 -1 $-1 0 0 0.2000000000000000111 0 1 0 F -0.6200010000000001353 F 5.220001000000000779 #
coedge $-1 -1 $-1 $76 $28 $31 $55 reversed $50 $-1 #
coedge $-1 -1 $-1 $28 $76 $40 $67 reversed $50 $-1 #
loop $-1 -1 $-1 $-1 $28 $59 #
vertex $-1 -1 $-1 $67 $77 #
straight-curve $-1 -1 $-1 0.2000000000000001776 0 0 -0 -1 -0 F -5.220001000000000779 F 0.6200010000000001353 #
coedge $-1 -1 $-1 $78 $30 $39 $65 reversed $32 $-1 #
coedge $-1 -1 $-1 $31 $79 $80 $81 reversed $32 $-1 #
edge $-1 -1 $-1 $82 -5.300000000000000711 $34 -0.2000000000000001776 $48 $83 forward @7 unknown #
face $-1 -1 $-1 $-1 $32 $3 $-1 $84 forward single #
point $-1 -1 $-1 0 4.600000000000000533 0.2000000000000001776 #
point $-1 -1 $-1 0.2000000000000001776 4.600000000000000533 0 #
face $-1 -1 $-1 $85 $50 $3 $-1 $86 forward single #
loop $-1 -1 $-1 $-1 $80 $36 #
cone-surface $-1 -1 $-1 5.300000000000000711 0 1.5 -0 1 0 1.060660171779821415 0 -1.060660171779821415 1 I I 0 1 1.500000000000000222 forward I I I I #
coedge $-1 -1 $-1 $87 $88 $64 $89 reversed $37 $-1 #
coedge $-1 -1 $-1 $90 $39 $43 $70 forward $21 $-1 #
coedge $-1 -1 $-1 $39 $90 $62 $89 forward $21 $-1 #
edge $-1 -1 $-1 $91 -0.7853981633974486121 $73 0.7853981633974488341 $53 $92 forward @7 unknown #
coedge $-1 -1 $-1 $93 $40 $94 $95 reversed $13 $-1 #
edge $-1 -1 $-1 $51 0.2000000000000001776 $96 5.300000000000000711 $49 $97 forward @7 unknown #
coedge $-1 -1 $-1 $41 $98 $90 $99 reversed $13 $-1 #
ellipse-curve $-1 -1 $-1 0.2000000000000001776 0 0.2000000000000000111 -0 1 0 -0.1414213562373095867 0 -0.1414213562373094479 1 I I #
edge $-1 -1 $-1 $73 -4.600000000000000533 $71 -0 $43 $100 forward @7 tangent #
vertex $-1 -1 $-1 $44 $101 #
straight-curve $-1 -1 $-1 0 0 3.800000000000000266 0 0 -1 F 0 F 3.800000000000000266 #
vertex $-1 -1 $-1 $70 $102 #
straight-curve $-1 -1 $-1 0 4.600000000000000533 3.800000000000000266 0 0 1 I I #
point $-1 -1 $-1 0 0 0.2000000000000001776 #
coedge $-1 -1 $-1 $49 $48 $103 $104 reversed $50 $-1 #
point $-1 -1 $-1 0.2000000000000001776 0 0 #
coedge $-1 -1 $-1 $105 $53 $88 $106 forward $32 $-1 #
coedge $-1 -1 $-1 $54 $105 $107 $108 forward $32 $-1 #
coedge $-1 -1 $-1 $109 $103 $54 $81 forward $60 $-1 #
edge $-1 -1 $-1 $82 -0.785398163397448279 $110 0.785398163397448279 $54 $111 forward @7 unknown #
vertex $-1 -1 $-1 $55 $112 #
straight-curve $-1 -1 $-1 0 4.600000000000000533 0 -1 -0 -0 I I #
plane-surface $-1 -1 $-1 3.400000000000000355 4.600000000000000533 1.899999999999999911 0 1 0 0 0 1 forward_v I I I I #
face $-1 -1 $-1 $113 $114 $3 $-1 $115 forward single #
plane-surface $-1 -1 $-1 6.800000000000000711 0 0 0 0 -1 -1 -0 -0 forward_v I I I I #
coedge $-1 -1 $-1 $116 $62 $98 $117 reversed $37 $-1 #
coedge $-1 -1 $-1 $62 $116 $78 $106 reversed $37 $-1 #
edge $-1 -1 $-1 $118 0 $91 4.600000000000000533 $62 $119 forward @7 tangent #
coedge $-1 -1 $-1 $64 $63 $68 $99 forward $21 $-1 #
vertex $-1 -1 $-1 $106 $120 #
ellipse-curve $-1 -1 $-1 0.2000000000000000111 4.600000000000000533 3.600000000000000089 -0 -1 -0 -0.1414213562373094479 0 0.1414213562373095867 1 I I #
coedge $-1 -1 $-1 $121 $66 $122 $123 forward $13 $-1 #
coedge $-1 -1 $-1 $103 $109 $66 $95 forward $60 $-1 #
edge $-1 -1 $-1 $124 -0.785398163397448279 $96 0.785398163397448279 $66 $125 forward @7 unknown #
vertex $-1 -1 $-1 $95 $126 #
straight-curve $-1 -1 $-1 0 0 0 1 0 0 F 0 F 6.800000000000000711 #
coedge $-1 -1 $-1 $68 $121 $87 $117 forward $13 $-1 #
edge $-1 -1 $-1 $71 -0.7853981633974488341 $118 0.7853981633974486121 $68 $127 forward @7 unknown #
straight-curve $-1 -1 $-1 0 0 3.600000000000000089 -0 -1 -0 F -5.220001000000000779 F 0.6200010000000001353 #
point $-1 -1 $-1 0 0 3.600000000000000089 #
point $-1 -1 $-1 0 4.600000000000000533 3.600000000000000089 #
coedge $-1 -1 $-1 $80 $94 $76 $104 forward $60 $-1 #
edge $-1 -1 $-1 $96 0 $82 4.600000000000000533 $76 $128 forward @7 tangent #
coedge $-1 -1 $-1 $79 $78 $129 $130 reversed $32 $-1 #
edge $-1 -1 $-1 $91 -6.600000000000000533 $131 -1.5 $88 $132 forward @7 unknown #
coedge $-1 -1 $-1 $133 $134 $79 $108 reversed $135 $-1 #
edge $-1 -1 $-1 $136 -2.300000000000000266 $110 -1.5 $107 $137 forward @7 unknown #
coedge $-1 -1 $-1 $94 $80 $134 $138 forward $60 $-1 #
vertex $-1 -1 $-1 $138 $139 #
ellipse-curve $-1 -1 $-1 5.300000000000000711 4.600000000000000533 1.5 -0 -1 -0 1.060660171779821415 0 -1.060660171779821415 1 I I #
point $-1 -1 $-1 5.300000000000000711 4.600000000000000533 0 #
face $-1 -1 $-1 $56 $135 $3 $-1 $140 forward single #
loop $-1 -1 $-1 $-1 $129 $85 #
cone-surface $-1 -1 $-1 5.300000000000000711 0 2.300000000000000266 -0 1 0 1.060660171779821415 0 1.060660171779821415 1 I I 0 1 1.500000000000000222 forward I I I I #
coedge $-1 -1 $-1 $88 $87 $141 $142 reversed $37 $-1 #
edge $-1 -1 $-1 $143 1.5 $118 6.600000000000000533 $87 $144 forward @7 unknown #
vertex $-1 -1 $-1 $99 $145 #
straight-curve $-1 -1 $-1 0.2000000000000000111 0 3.800000000000000266 0 1 0 F -0.6200010000000001353 F 5.220001000000000779 #
point $-1 -1 $-1 0.2000000000000001776 4.600000000000000533 3.800000000000000266 #
coedge $-1 -1 $-1 $98 $93 $146 $147 reversed $13 $-1 #
coedge $-1 -1 $-1 $134 $133 $93 $123 reversed $135 $-1 #
edge $-1 -1 $-1 $124 1.5 $148 2.300000000000000266 $122 $149 forward @7 unknown #
vertex $-1 -1 $-1 $123 $150 #
ellipse-curve $-1 -1 $-1 5.300000000000000711 0 1.5 -0 1 0 1.060660171779821415 0 -1.060660171779821415 1 I I #
point $-1 -1 $-1 5.300000000000000711 0 0 #
ellipse-curve $-1 -1 $-1 0.2000000000000000111 0 3.600000000000000089 -0 1 0 -0.1414213562373094479 0 0.1414213562373095867 1 I I #
straight-curve $-1 -1 $-1 5.300000000000000711 0 0 -0 1 0 F -4.650001000000000495 F 9.250000999999999252 #
coedge $-1 -1 $-1 $141 $151 $105 $130 forward $114 $-1 #
edge $-1 -1 $-1 $136 -0.785398163397448279 $131 0.785398163397448279 $105 $152 forward @7 unknown #
vertex $-1 -1 $-1 $142 $153 #
straight-curve $-1 -1 $-1 6.800000000000000711 4.600000000000000533 3.800000000000000266 1 0 0 I I #
coedge $-1 -1 $-1 $122 $107 $151 $154 reversed $135 $-1 #
coedge $-1 -1 $-1 $107 $122 $109 $138 reversed $135 $-1 #
loop $-1 -1 $-1 $-1 $134 $113 #
vertex $-1 -1 $-1 $108 $155 #
straight-curve $-1 -1 $-1 6.800000000000000711 4.600000000000000533 0 -0 -0 -1 I I #
edge $-1 -1 $-1 $110 -4.600000000000000533 $124 0 $134 $156 forward @7 tangent #
point $-1 -1 $-1 6.800000000000000711 4.600000000000000533 1.5 #
plane-surface $-1 -1 $-1 6.800000000000000711 0 3.800000000000000266 1 0 0 -0 -0 -1 forward_v I I I I #
coedge $-1 -1 $-1 $146 $129 $116 $142 forward $114 $-1 #
edge $-1 -1 $-1 $131 -4.600000000000000533 $143 0 $116 $157 forward @7 tangent #
vertex $-1 -1 $-1 $117 $158 #
straight-curve $-1 -1 $-1 6.800000000000000711 0 3.800000000000000266 -1 0 0 F 0 F 6.800000000000000711 #
point $-1 -1 $-1 0.2000000000000001776 0 3.800000000000000266 #
coedge $-1 -1 $-1 $151 $141 $121 $147 forward $114 $-1 #
edge $-1 -1 $-1 $143 -0.785398163397448279 $148 0.785398163397448279 $121 $159 forward @7 unknown #
vertex $-1 -1 $-1 $147 $160 #
straight-curve $-1 -1 $-1 6.800000000000000711 0 0 0 0 1 F 0 F 3.800000000000000266 #
point $-1 -1 $-1 6.800000000000000711 0 1.5 #
coedge $-1 -1 $-1 $129 $146 $133 $154 forward $114 $-1 #
ellipse-curve $-1 -1 $-1 5.300000000000000711 4.600000000000000533 2.300000000000000266 -0 -1 -0 1.060660171779821415 0 1.060660171779821415 1 I I #
point $-1 -1 $-1 5.300000000000000711 4.600000000000000533 3.800000000000000266 #
edge $-1 -1 $-1 $148 0 $136 4.600000000000000533 $133 $161 forward @7 tangent #
point $-1 -1 $-1 6.800000000000000711 4.600000000000000533 2.300000000000000266 #
straight-curve $-1 -1 $-1 6.800000000000000711 0 1.5 0 -1 -0 F -9.250000999999999252 F 4.650001000000000495 #
straight-curve $-1 -1 $-1 5.300000000000000711 0 3.800000000000000266 0 -1 -0 F -9.250000999999999252 F 4.650001000000000495 #
point $-1 -1 $-1 5.300000000000000711 0 3.800000000000000266 #
ellipse-curve $-1 -1 $-1 5.300000000000000711 0 2.300000000000000266 -0 1 0 1.060660171779821415 0 1.060660171779821415 1 I I #
point $-1 -1 $-1 6.800000000000000711 0 2.300000000000000266 #
straight-curve $-1 -1 $-1 6.800000000000000711 0 2.300000000000000266 -0 1 0 F -4.650001000000000495 F 9.250000999999999252 #
End-of-ACIS-data 