700 0 1 0           
11 SatConsumer 23 ASM 218.0.1.400 Unknown 24 Sun Jun 17 16:03:48 2018 
10 9.999999999999999547e-07 1.000000000000000036e-10 
body $-1 -1 $-1 $1 $-1 $2 #
lump $-1 -1 $-1 $-1 $3 $0 #
transform $-1 -1 1 0 0 0 1 0 0 0 1 0 0 0 1 no_rotate no_reflect no_shear #
shell $-1 -1 $-1 $-1 $-1 $4 $-1 $1 #
face $-1 -1 $-1 $5 $6 $3 $-1 $7 forward single #
face $-1 -1 $-1 $8 $9 $3 $-1 $10 forward single #
loop $-1 -1 $-1 $11 $12 $4 #
torus-surface $-1 -1 $-1 -0.7000000000000000666 0 0.1799999999999999933 -0 -0 -1 0.17000000000000004 0.02000000000000000389 -1 0 0 forward_v I I I I #
face $-1 -1 $-1 $13 $14 $3 $-1 $15 forward single #
loop $-1 -1 $-1 $16 $17 $5 #
plane-surface $-1 -1 $-1 0 0 0.2000000000000000111 0 0 1 1 0 0 forward_v I I I I #
loop $-1 -1 $-1 $-1 $18 $4 #
coedge $-1 -1 $-1 $12 $12 $19 $20 forward $6 $-1 #
face $-1 -1 $-1 $21 $22 $3 $-1 $23 forward single #
loop $-1 -1 $-1 $24 $25 $8 #
cone-surface $-1 -1 $-1 -0.7000000000000000666 0 0 0 0 1 0.1500000000000000222 0 0 1 I I 0 -1 0.1500000000000000222 forward I I I I #
loop $-1 -1 $-1 $26 $27 $5 #
coedge $-1 -1 $-1 $17 $17 $28 $29 reversed $9 $-1 #
coedge $-1 -1 $-1 $18 $18 $30 $31 forward $11 $-1 #
coedge $-1 -1 $-1 $19 $19 $12 $20 reversed $24 $-1 #
edge $-1 -1 $-1 $32 -3.141592653589793116 $32 3.141592653589793116 $19 $33 forward @7 tangent #
face $-1 -1 $-1 $34 $35 $3 $-1 $36 forward single #
loop $-1 -1 $-1 $37 $38 $13 #
torus-surface $-1 -1 $-1 0 0.7000000000000000666 0.1799999999999999933 -0 -0 -1 0.17000000000000004 0.02000000000000000389 -1 0 0 forward_v I I I I #
loop $-1 -1 $-1 $-1 $19 $8 #
coedge $-1 -1 $-1 $25 $25 $39 $40 reversed $14 $-1 #
loop $-1 -1 $-1 $41 $42 $5 #
coedge $-1 -1 $-1 $27 $27 $43 $44 reversed $16 $-1 #
coedge $-1 -1 $-1 $28 $28 $17 $29 forward $37 $-1 #
edge $-1 -1 $-1 $45 -3.141592653589793116 $45 3.141592653589793116 $17 $46 forward @7 tangent #
coedge $-1 -1 $-1 $30 $30 $18 $31 reversed $47 $-1 #
edge $-1 -1 $-1 $48 -3.141592653589793116 $48 3.141592653589793116 $30 $49 forward @7 tangent #
vertex $-1 -1 $-1 $20 $50 #
ellipse-curve $-1 -1 $-1 -0.7000000000000000666 0 0.1799999999999999933 -0 -0 -1 0.1500000000000000222 0 0 1 I I #
face $-1 -1 $-1 $51 $52 $3 $-1 $53 forward single #
loop $-1 -1 $-1 $54 $55 $21 #
cone-surface $-1 -1 $-1 0 0.7000000000000000666 0 0 0 1 0.1500000000000000222 0 0 1 I I 0 -1 0.1500000000000000222 forward I I I I #
loop $-1 -1 $-1 $-1 $28 $13 #
coedge $-1 -1 $-1 $38 $38 $56 $57 forward $22 $-1 #
coedge $-1 -1 $-1 $39 $39 $25 $40 forward $58 $-1 #
edge $-1 -1 $-1 $59 -3.141592653589793116 $59 3.141592653589793116 $25 $60 forward @7 tangent #
loop $-1 -1 $-1 $61 $62 $5 #
coedge $-1 -1 $-1 $42 $42 $63 $64 forward $26 $-1 #
coedge $-1 -1 $-1 $43 $43 $27 $44 forward $65 $-1 #
edge $-1 -1 $-1 $66 -3.141592653589793116 $66 3.141592653589793116 $27 $67 forward @7 tangent #
vertex $-1 -1 $-1 $29 $68 #
ellipse-curve $-1 -1 $-1 0 0.7000000000000000666 0.2000000000000000111 0 0 1 0.17000000000000004 0 0 1 I I #
loop $-1 -1 $-1 $-1 $30 $5 #
vertex $-1 -1 $-1 $31 $69 #
ellipse-curve $-1 -1 $-1 -0.7000000000000000666 0 0.2000000000000000111 0 0 1 0.17000000000000004 0 0 1 I I #
point $-1 -1 $-1 -0.8500000000000000888 1.836970198721030057e-17 0.1799999999999999933 #
face $-1 -1 $-1 $70 $71 $3 $-1 $72 forward single #
loop $-1 -1 $-1 $73 $74 $34 #
torus-surface $-1 -1 $-1 0.7000000000000000666 0 0.1799999999999999933 -0 -0 -1 0.17000000000000004 0.02000000000000000389 -1 0 0 forward_v I I I I #
loop $-1 -1 $-1 $-1 $56 $21 #
coedge $-1 -1 $-1 $55 $55 $75 $76 reversed $35 $-1 #
coedge $-1 -1 $-1 $56 $56 $38 $57 reversed $54 $-1 #
edge $-1 -1 $-1 $77 -3.141592653589793116 $77 3.141592653589793116 $56 $78 forward @7 tangent #
loop $-1 -1 $-1 $79 $39 $80 #
vertex $-1 -1 $-1 $40 $81 #
ellipse-curve $-1 -1 $-1 -0.7000000000000000666 0 0.02000000000000000389 0 0 1 0.1500000000000000222 0 0 1 I I #
loop $-1 -1 $-1 $82 $83 $5 #
coedge $-1 -1 $-1 $62 $62 $84 $85 forward $41 $-1 #
coedge $-1 -1 $-1 $63 $63 $42 $64 reversed $86 $-1 #
edge $-1 -1 $-1 $87 -3.141592653589793116 $87 3.141592653589793116 $42 $88 forward @7 unknown #
loop $-1 -1 $-1 $-1 $43 $70 #
vertex $-1 -1 $-1 $44 $89 #
ellipse-curve $-1 -1 $-1 0 -0.7000000000000000666 0.2000000000000000111 0 0 1 0.1699999999999999845 0 0 1 I I #
point $-1 -1 $-1 -0.17000000000000004 0.7000000000000000666 0.2000000000000000111 #
point $-1 -1 $-1 -0.8700000000000001066 -2.081899558550501081e-17 0.2000000000000000111 #
face $-1 -1 $-1 $90 $91 $3 $-1 $92 forward single #
loop $-1 -1 $-1 $93 $94 $51 #
cone-surface $-1 -1 $-1 0.7000000000000000666 0 0 0 0 1 0.1500000000000000222 0 0 1 I I 0 -1 0.1500000000000000222 forward I I I I #
loop $-1 -1 $-1 $-1 $95 $34 #
coedge $-1 -1 $-1 $74 $74 $96 $97 forward $52 $-1 #
coedge $-1 -1 $-1 $75 $75 $55 $76 forward $98 $-1 #
edge $-1 -1 $-1 $99 -3.141592653589793116 $99 3.141592653589793116 $55 $100 forward @7 tangent #
vertex $-1 -1 $-1 $57 $101 #
ellipse-curve $-1 -1 $-1 0 0.7000000000000000666 0.1799999999999999933 -0 -0 -1 0.1500000000000000222 0 0 1 I I #
loop $-1 -1 $-1 $-1 $102 $80 #
face $-1 -1 $-1 $103 $58 $3 $-1 $104 forward single #
point $-1 -1 $-1 -0.8500000000000000888 -1.836970198721030057e-17 0.02000000000000000389 #
loop $-1 -1 $-1 $47 $105 $5 #
coedge $-1 -1 $-1 $83 $83 $106 $107 forward $61 $-1 #
coedge $-1 -1 $-1 $84 $84 $62 $85 reversed $108 $-1 #
edge $-1 -1 $-1 $109 -3.141592653589793116 $109 3.141592653589793116 $62 $110 forward @7 unknown #
loop $-1 -1 $-1 $-1 $63 $111 #
vertex $-1 -1 $-1 $64 $112 #
ellipse-curve $-1 -1 $-1 -0.5020458146424486845 0.5020458146424487955 0.2000000000000000111 -0 -0 -1 0.06500000000000000222 0 0 1 I I #
point $-1 -1 $-1 -0.1699999999999999845 -0.7000000000000000666 0.2000000000000000111 #
face $-1 -1 $-1 $113 $114 $3 $-1 $115 forward single #
loop $-1 -1 $-1 $65 $116 $70 #
torus-surface $-1 -1 $-1 0 -0.7000000000000000666 0.1799999999999999933 -0 -0 -1 0.1699999999999999845 0.02000000000000000389 -1 0 0 forward_v I I I I #
loop $-1 -1 $-1 $-1 $96 $51 #
coedge $-1 -1 $-1 $94 $94 $117 $118 reversed $71 $-1 #
coedge $-1 -1 $-1 $95 $95 $105 $119 forward $73 $-1 #
coedge $-1 -1 $-1 $96 $96 $74 $97 reversed $93 $-1 #
edge $-1 -1 $-1 $120 -3.141592653589793116 $120 3.141592653589793116 $96 $121 forward @7 tangent #
loop $-1 -1 $-1 $122 $75 $103 #
vertex $-1 -1 $-1 $76 $123 #
ellipse-curve $-1 -1 $-1 0 0.7000000000000000666 0.02000000000000000389 0 0 1 0.1500000000000000222 0 0 1 I I #
point $-1 -1 $-1 -0.1500000000000000222 0.7000000000000000666 0.1799999999999999933 #
coedge $-1 -1 $-1 $102 $102 $124 $125 forward $79 $-1 #
face $-1 -1 $-1 $126 $98 $3 $-1 $127 forward single #
torus-surface $-1 -1 $-1 -0.7000000000000000666 0 0.02000000000000000389 0 0 1 0.17000000000000004 0.02000000000000000389 1 0 0 forward_v I I I I #
coedge $-1 -1 $-1 $105 $105 $95 $119 reversed $82 $-1 #
coedge $-1 -1 $-1 $106 $106 $83 $107 reversed $128 $-1 #
edge $-1 -1 $-1 $129 -3.141592653589793116 $129 3.141592653589793116 $106 $130 forward @7 unknown #
loop $-1 -1 $-1 $-1 $84 $131 #
vertex $-1 -1 $-1 $85 $132 #
ellipse-curve $-1 -1 $-1 0 0 0.2000000000000000111 -0 -0 -1 0.4440000000000001168 0 0 1 I I #
face $-1 -1 $-1 $133 $134 $3 $-1 $135 forward single #
point $-1 -1 $-1 -0.5670458146424486312 0.5020458146424487955 0.2000000178813934326 #
face $-1 -1 $-1 $136 $137 $3 $-1 $138 forward single #
loop $-1 -1 $-1 $139 $140 $90 #
cone-surface $-1 -1 $-1 0 -0.7000000000000000666 0 0 0 1 0.1499999999999999944 0 0 1 I I 0 -1 0.1499999999999999944 forward I I I I #
coedge $-1 -1 $-1 $116 $116 $141 $142 forward $91 $-1 #
coedge $-1 -1 $-1 $117 $117 $94 $118 forward $143 $-1 #
edge $-1 -1 $-1 $144 -3.141592653589793116 $144 3.141592653589793116 $94 $145 forward @7 tangent #
edge $-1 -1 $-1 $146 -3.141592653589793116 $146 3.141592653589793116 $105 $147 forward @7 tangent #
vertex $-1 -1 $-1 $97 $148 #
ellipse-curve $-1 -1 $-1 0.7000000000000000666 0 0.1799999999999999933 -0 -0 -1 0.1500000000000000222 0 0 1 I I #
loop $-1 -1 $-1 $-1 $149 $103 #
point $-1 -1 $-1 -0.1500000000000000222 0.7000000000000000666 0.02000000000000000389 #
coedge $-1 -1 $-1 $124 $124 $102 $125 reversed $150 $-1 #
edge $-1 -1 $-1 $151 -3.141592653589793116 $151 3.141592653589793116 $124 $152 forward @7 tangent #
face $-1 -1 $-1 $111 $153 $3 $-1 $154 forward single #
torus-surface $-1 -1 $-1 0 0.7000000000000000666 0.02000000000000000389 0 0 1 0.17000000000000004 0.02000000000000000389 1 0 0 forward_v I I I I #
loop $-1 -1 $-1 $155 $106 $156 #
vertex $-1 -1 $-1 $107 $157 #
ellipse-curve $-1 -1 $-1 0 0 0.2000000000000000111 0 0 1 1 0 0 1 I I #
face $-1 -1 $-1 $156 $158 $3 $-1 $159 forward single #
point $-1 -1 $-1 -0.4440000000000001168 -5.437431788214249758e-17 0.2000000029802322388 #
face $-1 -1 $-1 $131 $160 $3 $-1 $161 forward single #
loop $-1 -1 $-1 $86 $162 $111 #
torus-surface $-1 -1 $-1 -0.5020458146424486845 0.5020458146424487955 0.2100000178813934415 0 0 1 0.01601020879436398925 -0.05000000000000000278 -1 0 0 forward_v F -1.570796326794896558 F -0.2013582857927595782 I I #
face $-1 -1 $-1 $163 $164 $3 $-1 $165 forward single #
loop $-1 -1 $-1 $166 $167 $113 #
torus-surface $-1 -1 $-1 0 0 0.2900000029802322077 -0 -0 -1 0.3120000000000001106 0.01000000000000000194 -1 0 0 forward_v I I I I #
loop $-1 -1 $-1 $-1 $141 $90 #
coedge $-1 -1 $-1 $140 $140 $168 $169 reversed $114 $-1 #
coedge $-1 -1 $-1 $141 $141 $116 $142 reversed $139 $-1 #
edge $-1 -1 $-1 $170 -3.141592653589793116 $170 3.141592653589793116 $141 $171 forward @7 tangent #
loop $-1 -1 $-1 $172 $117 $173 #
vertex $-1 -1 $-1 $118 $174 #
ellipse-curve $-1 -1 $-1 0.7000000000000000666 0 0.02000000000000000389 0 0 1 0.1500000000000000222 0 0 1 I I #
vertex $-1 -1 $-1 $119 $175 #
ellipse-curve $-1 -1 $-1 0.7000000000000000666 0 0.2000000000000000111 0 0 1 0.17000000000000004 0 0 1 I I #
point $-1 -1 $-1 0.5500000000000000444 1.836970198721030057e-17 0.1799999999999999933 #
coedge $-1 -1 $-1 $149 $149 $176 $177 forward $122 $-1 #
loop $-1 -1 $-1 $178 $124 $179 #
vertex $-1 -1 $-1 $125 $180 #
ellipse-curve $-1 -1 $-1 -0.7000000000000000666 0 0 -0 -0 -1 0.17000000000000004 0 0 1 I I #
loop $-1 -1 $-1 $181 $182 $126 #
torus-surface $-1 -1 $-1 0 0 0.02000000000000000389 0 0 1 0.3220000000000001195 0.02000000000000000389 1 0 0 forward_v I I I I #
loop $-1 -1 $-1 $-1 $183 $156 #
face $-1 -1 $-1 $-1 $128 $3 $-1 $184 forward single #
point $-1 -1 $-1 -1 -1.224646799147353207e-16 0.2000000000000000111 #
loop $-1 -1 $-1 $108 $185 $131 #
cone-surface $-1 -1 $-1 0 0 0.2000000029802322388 0 0 1 0.4440000000000001168 0 0 1 I I 0 1 0.4440000000000001168 forward I I I I #
loop $-1 -1 $-1 $-1 $186 $133 #
plane-surface $-1 -1 $-1 0 0 0.1600000178813934248 0 0 1 1 0 0 forward_v I I I I #
coedge $-1 -1 $-1 $162 $162 $186 $187 forward $134 $-1 #
face $-1 -1 $-1 $173 $188 $3 $-1 $189 forward single #
loop $-1 -1 $-1 $190 $191 $136 #
cone-surface $-1 -1 $-1 0 0 0 0 0 1 0.3020000000000001017 0 0 1 I I 0 -1 0.3020000000000001017 forward I I I I #
loop $-1 -1 $-1 $-1 $192 $113 #
coedge $-1 -1 $-1 $167 $167 $193 $194 forward $137 $-1 #
coedge $-1 -1 $-1 $168 $168 $140 $169 forward $195 $-1 #
edge $-1 -1 $-1 $196 -3.141592653589793116 $196 3.141592653589793116 $140 $197 forward @7 tangent #
vertex $-1 -1 $-1 $142 $198 #
ellipse-curve $-1 -1 $-1 0 -0.7000000000000000666 0.1799999999999999933 -0 -0 -1 0.1499999999999999944 0 0 1 I I #
loop $-1 -1 $-1 $-1 $199 $173 #
face $-1 -1 $-1 $179 $143 $3 $-1 $200 forward single #
point $-1 -1 $-1 0.5500000000000000444 -1.836970198721030057e-17 0.02000000000000000389 #
point $-1 -1 $-1 0.5300000000000000266 -2.081899558550501081e-17 0.2000000000000000111 #
coedge $-1 -1 $-1 $176 $176 $149 $177 reversed $201 $-1 #
edge $-1 -1 $-1 $202 -3.141592653589793116 $202 3.141592653589793116 $176 $203 forward @7 tangent #
loop $-1 -1 $-1 $-1 $204 $179 #
face $-1 -1 $-1 $205 $206 $3 $-1 $207 reversed single #
point $-1 -1 $-1 -0.8700000000000001066 2.081899558550501081e-17 0 #
loop $-1 -1 $-1 $-1 $208 $126 #
coedge $-1 -1 $-1 $182 $182 $191 $209 forward $153 $-1 #
coedge $-1 -1 $-1 $183 $183 $210 $211 forward $155 $-1 #
cone-surface $-1 -1 $-1 0 0 0 0 0 1 1 0 0 1 I I 0 1 1 forward I I I I #
coedge $-1 -1 $-1 $185 $185 $212 $213 reversed $158 $-1 #
coedge $-1 -1 $-1 $186 $186 $162 $187 reversed $160 $-1 #
edge $-1 -1 $-1 $214 -3.141592653589793116 $214 3.141592653589793116 $186 $215 forward @7 tangent #
loop $-1 -1 $-1 $216 $212 $163 #
plane-surface $-1 -1 $-1 0 0 0.3000000029802322166 0 0 1 1 0 0 forward_v I I I I #
loop $-1 -1 $-1 $-1 $193 $136 #
coedge $-1 -1 $-1 $191 $191 $182 $209 reversed $164 $-1 #
coedge $-1 -1 $-1 $192 $192 $217 $218 forward $166 $-1 #
coedge $-1 -1 $-1 $193 $193 $167 $194 reversed $190 $-1 #
edge $-1 -1 $-1 $219 -3.141592653589793116 $219 3.141592653589793116 $193 $220 forward @7 tangent #
loop $-1 -1 $-1 $221 $168 $205 #
vertex $-1 -1 $-1 $169 $222 #
ellipse-curve $-1 -1 $-1 0 -0.7000000000000000666 0.02000000000000000389 0 0 1 0.1499999999999999944 0 0 1 I I #
point $-1 -1 $-1 -0.1499999999999999944 -0.7000000000000000666 0.1799999999999999933 #
coedge $-1 -1 $-1 $199 $199 $204 $223 forward $172 $-1 #
torus-surface $-1 -1 $-1 0.7000000000000000666 0 0.02000000000000000389 0 0 1 0.17000000000000004 0.02000000000000000389 1 0 0 forward_v I I I I #
loop $-1 -1 $-1 $224 $176 $179 #
vertex $-1 -1 $-1 $177 $225 #
ellipse-curve $-1 -1 $-1 0 0.7000000000000000666 0 -0 -0 -1 0.17000000000000004 0 0 1 I I #
coedge $-1 -1 $-1 $204 $204 $199 $223 reversed $178 $-1 #
face $-1 -1 $-1 $80 $195 $3 $-1 $226 forward single #
loop $-1 -1 $-1 $201 $227 $179 #
plane-surface $-1 -1 $-1 0 0 0 0 0 1 1 0 0 forward_v I I I I #
coedge $-1 -1 $-1 $208 $208 $228 $229 forward $181 $-1 #
edge $-1 -1 $-1 $230 -3.141592653589793116 $230 3.141592653589793116 $191 $231 forward @7 tangent #
coedge $-1 -1 $-1 $210 $210 $183 $211 reversed $224 $-1 #
edge $-1 -1 $-1 $232 -3.141592653589793116 $232 3.141592653589793116 $183 $233 forward @7 unknown #
coedge $-1 -1 $-1 $212 $212 $185 $213 forward $188 $-1 #
edge $-1 -1 $-1 $234 -3.141592653589793116 $234 3.141592653589793116 $185 $235 forward @7 unknown #
vertex $-1 -1 $-1 $187 $236 #
ellipse-curve $-1 -1 $-1 -0.5020458146424486845 0.5020458146424487955 0.1600000178813934526 -0 -0 -1 -0.01601020879436398925 0 0 1 I I #
loop $-1 -1 $-1 $-1 $217 $163 #
coedge $-1 -1 $-1 $217 $217 $192 $218 reversed $216 $-1 #
edge $-1 -1 $-1 $237 -3.141592653589793116 $237 3.141592653589793116 $217 $238 forward @7 tangent #
vertex $-1 -1 $-1 $194 $239 #
ellipse-curve $-1 -1 $-1 0 0 0.2900000029802322077 -0 -0 -1 0.3020000000000001017 0 0 1 I I #
loop $-1 -1 $-1 $-1 $240 $205 #
point $-1 -1 $-1 -0.1499999999999999944 -0.7000000000000000666 0.02000000000000000389 #
edge $-1 -1 $-1 $241 -3.141592653589793116 $241 3.141592653589793116 $204 $242 forward @7 tangent #
loop $-1 -1 $-1 $243 $210 $179 #
point $-1 -1 $-1 -0.17000000000000004 0.7000000000000000666 0 #
torus-surface $-1 -1 $-1 0 -0.7000000000000000666 0.02000000000000000389 0 0 1 0.1699999999999999845 0.02000000000000000389 1 0 0 forward_v I I I I #
coedge $-1 -1 $-1 $227 $227 $240 $244 reversed $206 $-1 #
coedge $-1 -1 $-1 $228 $228 $208 $229 reversed $243 $-1 #
edge $-1 -1 $-1 $245 -3.141592653589793116 $245 3.141592653589793116 $228 $246 forward @7 tangent #
vertex $-1 -1 $-1 $209 $247 #
ellipse-curve $-1 -1 $-1 0 0 0.02000000000000000389 0 0 1 0.3020000000000001017 0 0 1 I I #
vertex $-1 -1 $-1 $211 $248 #
ellipse-curve $-1 -1 $-1 0 0 0 0 0 1 1 0 0 1 F -3.141592653589793116 F 3.141592653589793116 #
vertex $-1 -1 $-1 $213 $249 #
ellipse-curve $-1 -1 $-1 0 0 0.3000000029802322166 0 0 1 0.4440000000000001168 0 0 1 I I #
point $-1 -1 $-1 -0.4860356058480846952 0.5020458146424487955 0.1600000178813934526 #
vertex $-1 -1 $-1 $218 $250 #
ellipse-curve $-1 -1 $-1 0 0 0.3000000029802322166 0 0 1 0.3120000000000001106 0 0 1 I I #
point $-1 -1 $-1 -0.3020000000000001017 3.698433333425007741e-17 0.2900000029802322077 #
coedge $-1 -1 $-1 $240 $240 $227 $244 forward $221 $-1 #
vertex $-1 -1 $-1 $223 $251 #
ellipse-curve $-1 -1 $-1 0.7000000000000000666 0 0 -0 -0 -1 0.17000000000000004 0 0 1 I I #
loop $-1 -1 $-1 $150 $228 $179 #
edge $-1 -1 $-1 $252 -3.141592653589793116 $252 3.141592653589793116 $227 $253 forward @7 tangent #
vertex $-1 -1 $-1 $229 $254 #
ellipse-curve $-1 -1 $-1 0 0 0 -0 -0 -1 0.3220000000000001195 0 0 1 I I #
point $-1 -1 $-1 -0.3020000000000001017 -3.698433333425007741e-17 0.02000000000000000389 #
point $-1 -1 $-1 -1 -1.224646799147353207e-16 0 #
point $-1 -1 $-1 -0.4440000000000001168 -5.437431788214249758e-17 0.3000000029802322166 #
point $-1 -1 $-1 -0.3120000000000001106 -3.820898013339743407e-17 0.3000000029802322166 #
point $-1 -1 $-1 0.5300000000000000266 2.081899558550501081e-17 0 #
vertex $-1 -1 $-1 $244 $255 #
ellipse-curve $-1 -1 $-1 0 -0.7000000000000000666 0 -0 -0 -1 0.1699999999999999845 0 0 1 I I #
point $-1 -1 $-1 -0.3220000000000001195 3.943362693254479072e-17 0 #
point $-1 -1 $-1 -0.1699999999999999845 -0.7000000000000000666 0 #
End-of-ACIS-data 